<?xml version="1.0" encoding="UTF-8"?>
<svg id="Ebene_2" data-name="Ebene 2" xmlns="http://www.w3.org/2000/svg" viewBox="0 0 121.25 121.25">
  <defs>
    <style>
      .cls-1 {
        fill: none;
        stroke: #006371;
        stroke-linecap: round;
        stroke-linejoin: round;
        stroke-width: 3.5px;
      }
    </style>
  </defs>
  <path class="cls-1" d="M76.03,24.62h9.95c3.38,0,6.13,2.73,6.13,6.11v59.78c0,3.37-2.75,6.11-6.13,6.11h-46.2c-3.38,0-6.11-2.75-6.11-6.11V30.73c0-3.38,2.73-6.11,6.11-6.11h9.95"/>
  <path class="cls-1" d="M52.74,18.37h20.27c1.66,0,3.01,1.35,3.01,3.01v5.81c0,1.66-1.35,3.01-3.01,3.01h-20.27c-1.66,0-3.02-1.35-3.02-3.02v-5.81c0-1.66,1.35-3.02,3.02-3.02Z"/>
  <path class="cls-1" d="M63.88,77.27h18.41M63.88,60.81h18.41M63.88,44.35h18.41M44.32,76.2c1.74,1.74,3.49,3.49,5.23,5.23,2.71-2.71,5.43-5.43,8.14-8.14M44.32,59.95c1.74,1.74,3.49,3.49,5.23,5.23,2.71-2.71,5.43-5.43,8.14-8.14M44.32,43.69c1.74,1.74,3.49,3.49,5.23,5.23,2.71-2.71,5.43-5.43,8.14-8.14"/>
</svg>