<?xml version="1.0" encoding="UTF-8"?>
<svg id="Ebene_2" data-name="Ebene 2" xmlns="http://www.w3.org/2000/svg" viewBox="0 0 121.25 121.25">
  <defs>
    <style>
      .cls-1 {
        fill: none;
        stroke: #006371;
        stroke-linecap: round;
        stroke-linejoin: round;
        stroke-width: 3.5px;
      }
    </style>
  </defs>
  <path class="cls-1" d="M80.16,57h-11.45v-11.5s-11.81,0-11.81,0v11.5h-11.45s0,11.49,0,11.49h11.45v11.5s11.81,0,11.81,0v-11.5h11.45s0-11.49,0-11.49ZM62.76,103.83c-6.93-2.3-24.7-9.16-33.23-24.83-.02-.03-.03-.06-.05-.08-2.3-4.25-3.4-9.06-3.4-13.9v-29.82c9.16-.62,20.3-2.73,31.61-8.38,2.08-1.04,2.15-1.06,4.65-2.56,2.12,1.28,2.68,1.56,4.68,2.56,11.31,5.64,22.45,7.75,31.61,8.38v29.82c0,4.84-1.1,9.64-3.4,13.9-.02.03-.03.06-.05.08-8.52,15.67-26.33,22.53-33.26,24.83"/>
</svg>