<?xml version="1.0" encoding="UTF-8"?>
<svg id="Ebene_2" data-name="Ebene 2" xmlns="http://www.w3.org/2000/svg" viewBox="0 0 121.25 121.25">
  <defs>
    <style>
      .cls-1 {
        fill: none;
        stroke: #006371;
        stroke-linecap: round;
        stroke-linejoin: round;
        stroke-width: 3.5px;
      }
    </style>
  </defs>
  <path class="cls-1" d="M51.3,82.67c-2.27-1.52-5-2.41-7.94-2.41h-5.59c-7.87,0-14.25,6.38-14.25,14.25h34.09"/>
  <path class="cls-1" d="M68.15,94.51h34.09c0-7.87-6.38-14.25-14.25-14.25h-5.59c-3.32,0-6.37,1.14-8.79,3.03"/>
  <path class="cls-1" d="M79.08,94.5h-34.09c0-7.87,6.38-14.25,14.25-14.25h5.59c7.87,0,14.25,6.38,14.25,14.25Z"/>
  <path class="cls-1" d="M92.69,68.91c0,4.02-3.25,7.27-7.27,7.27s-7.27-3.26-7.27-7.27,3.26-7.27,7.27-7.27,7.27,3.25,7.27,7.27Z"/>
  <path class="cls-1" d="M69.3,68.94c0,4.02-3.25,7.27-7.27,7.27s-7.27-3.25-7.27-7.27,3.26-7.27,7.27-7.27,7.27,3.25,7.27,7.27Z"/>
  <path class="cls-1" d="M47.55,69c0,4.02-3.25,7.27-7.27,7.27s-7.27-3.25-7.27-7.27,3.26-7.27,7.27-7.27,7.27,3.25,7.27,7.27Z"/>
  <path class="cls-1" d="M62.05,46.68v13.85M62.05,16.4v2.87M60.93,20.02c3.77-.07,6.63.57,8.39,1.08,18.49,5.35,24.95,28.51,25.4,30.2.13.5.23.91.29,1.15-1.19-1-2.38-2.01-3.58-3.01-.35-.29-.84-.75-1.46-1.19-3.88-2.76-8.61-1.66-9.09-1.54-5.91,1.49-8.11,7.35-8.29,7.86-.28-.84-1.53-4.32-5.2-6.31-2.54-1.38-4.96-1.35-6.02-1.28M62.37,20.02c-3.77-.07-6.63.57-8.39,1.08-18.49,5.35-24.95,28.51-25.4,30.2-.13.5-.23.91-.29,1.15,1.19-1,2.38-2.01,3.58-3.01.35-.29.84-.75,1.46-1.19,3.88-2.76,8.61-1.66,9.09-1.54,5.91,1.49,8.11,7.35,8.29,7.86.28-.84,1.53-4.32,5.2-6.31,2.54-1.38,4.96-1.35,6.02-1.28"/>
</svg>